<?xml version="1.0" encoding="UTF-8"?>
<svg id="Capa_1" data-name="Capa 1" xmlns="http://www.w3.org/2000/svg" viewBox="0 0 1000 666">
  <defs>
    <style>
      .cls-1 {
        fill: #010101;
        font-family: MADELikesSlab, 'MADE Likes Slab';
        font-size: 27.42px;
      }

      .cls-2 {
        fill: #b5d2d6;
      }

      .cls-3 {
        stroke: #658fa2;
      }

      .cls-3, .cls-4, .cls-5, .cls-6, .cls-7, .cls-8 {
        fill: none;
        stroke-width: 2px;
      }

      .cls-4 {
        stroke: #72abc3;
      }

      .cls-5 {
        stroke: #d9e5df;
      }

      .cls-6 {
        stroke: #89a2ad;
      }

      .cls-9 {
        fill: #fff;
        stroke: #1d1d1b;
        stroke-miterlimit: 10;
      }

      .cls-7 {
        stroke: #216890;
      }

      .cls-10 {
        fill: #fff8e9;
      }

      .cls-11 {
        fill: #134b70;
      }

      .cls-8 {
        stroke: #96bdcb;
      }

      .cls-12 {
        fill: #2d83b0;
      }
    </style>
  </defs>
  <g id="xxxx">
    <path class="cls-6" d="m405.92,202.41c-4.25,9.75-7.31,19.28-9.17,28.59" vector-effect="non-scaling-stroke"/>
    <path class="cls-8" d="m396.75,231l-81.98-.05c-.34,0-.63.25-.67.59-3.08,25.75-.83,50.94,6.74,75.55" vector-effect="non-scaling-stroke"/>
    <path class="cls-6" d="m320.84,307.09l3.36,10.4c.1.32.32.49.67.5,27.1,1.16,57.67,10.3,79.1,27.81.22.18.19.3-.09.35-12.36,2.51-23.6,2.56-33.73.17-10.41-2.45-21.11-3.25-32.09-2.38-.38.03-.66.37-.63.74,0,.11.04.21.1.3l6,9.67c.21.34.52.5.92.49,7.47-.25,14.85.3,22.15,1.65,15.39,2.86,28.49,3.27,43.77-.65,6.76-1.73,10.95-2.7,12.57-2.9,13.63-1.67,26.77,1.96,39.22,8.66" vector-effect="non-scaling-stroke"/>
    <path class="cls-8" d="m462.16,361.9c-6.03.09-13.47-.75-22.31-2.53-4.05-.81-8.62-1.05-13.72-.72-8.11.54-18.44,4-25.85,4.93-10.03,1.26-18.49,1.34-25.38.25-8.57-1.37-16.91-3.15-25.82-2.89-.37,0-.46.17-.26.49,2.27,3.66,1.77,3.28,6.02,3.68,3.65.34,9.15,1.18,16.5,2.53,15.76,2.89,31.41-.16,47.82-4.07,6.72-1.6,13.65-1.47,20.89-.62,7.85.93,15.71.93,23.58,0" vector-effect="non-scaling-stroke"/>
    <path class="cls-6" d="m463.63,362.95l5.13,1.87" vector-effect="non-scaling-stroke"/>
    <path class="cls-8" d="m468.76,364.82c-7.64,1.55-14.28,2.32-19.93,2.29-5.33-.03-14.82-1.09-22.68-.18-7.38.87-15.98,3.91-21.57,4.92-17.87,3.25-31.58,1.25-48.06-1.81-.2-.03-.39.1-.43.3-.02.11,0,.21.08.29,7.3,8.67,15.37,16.53,24.22,23.59.25.21.54.28.86.23,17.91-2.91,35.71-2.77,53.41.4,8.12,1.46,20.76,5.41,31.76,6.43,8.73.81,20-.99,27.67-.67,3.79.16,12.6,1.07,26.43,2.74,6.74.81,10.15,1.1,15.06,4.02.26.16.35.5.19.77-.07.11-.17.2-.3.24-2.17.68-4.45.43-6.4.48-8.19.18-16.58.07-24.53.98-10.68,1.21-22.42,3.35-31.99,3.96-23.29,1.47-47.77-4.6-68.47-3.54-.43.02-.45.14-.08.35,13.93,7.98,28.66,13.99,44.19,18.04,9.75,2.54,24.04-.13,33.82-2.26,9.86-2.16,15.28-3.32,16.27-3.47,18.95-2.92,37.98-2.85,57.07.2.57.09,1.23,0,1.97-.3,21.35-8.39,40.47-20.08,57.36-35.06.34-.31.28-.44-.17-.41-12.58.8-25.19,6.26-32.93,7.29-19.08,2.54-37.33,1.05-54.74-4.48-15.42-4.9-27.01-5.47-43.52-4.3-15.54,1.1-30.95-.04-46.22-3.41-3.04-.67-5.87-1.66-8.5-2.96-.5-.25-.7-.86-.44-1.36.13-.26.37-.45.65-.52,2.99-.71,6.08-1.01,9.28-.89,9.21.33,18.34-.2,27.4-1.61,6.96-1.08,14.68-3.45,22.04-5.34" vector-effect="non-scaling-stroke"/>
    <path class="cls-6" d="m487.53,369.77c11.77-.49,22.19-1.16,33.88,1.51,7.19,1.64,17.47,4.98,25.08,6.29,9.49,1.63,19.02,1.97,28.61,1,13.99-1.41,27.09-7.27,41.02-8.19,4.91-.33,9.83-.3,14.77.09.43.03.77-.12,1.04-.45l7.25-9.02c.29-.37.21-.59-.26-.67-10.19-1.81-19.53-2.11-28.02-.89-10.7,1.55-23.71,6.14-33.5,7.44-15.62,2.07-30.99.44-46.11-4.88-.33-.11-.38-.3-.16-.57,8.22-9.99,20.75-14.32,33.29-15.29.09,0,.17-.08.17-.17,0-.09-.08-.17-.17-.17-15.24-1.78-31.61,1.67-42.09,13.64-.22.25-.49.35-.82.28-9.57-1.97-19.19-2.44-28.88-1.43-5.1.54-8.46.15-13.01-1.18-.05-.02-.07-.08-.05-.13.01-.03.04-.05.07-.06,13.49-1.38,26.09-5.54,37.79-12.49.09-.05.12-.17.07-.26-.04-.08-.13-.11-.21-.09l-15.93,3.91" vector-effect="non-scaling-stroke"/>
    <path class="cls-5" d="m501.36,347.99c-1.7.17-3.27.03-4.71-.44-.34-.12-.53-.49-.41-.84.08-.24.3-.41.55-.44.61-.06,1.04-.35,1.3-.86.16-.31.41-.5.76-.57,1.81-.34,3.41-1.15,4.79-2.44" vector-effect="non-scaling-stroke"/>
    <path class="cls-6" d="m503.64,342.4c9.93-4.17,20.64-9.39,30.31-11.78,36.52-9.02,79.59,3.34,112.77,18.57.36.16.64.07.83-.27l4.98-8.81c.21-.37.12-.64-.27-.81-9.9-4.52-20.01-8.5-30.34-11.94-.22-.07-.33-.3-.26-.52.03-.09.09-.16.16-.21,11.99-7.98,24.73-9.16,38.24-3.54.34.14.58.04.73-.3l2.5-5.96c.14-.34.07-.62-.21-.85-16.01-12.85-37.83-10.13-47.73,8.71-.13.25-.34.35-.62.28l-21.73-5.35c-.35-.09-.44-.29-.25-.6,13.3-21.82,31.67-45.73,61.3-34.97,5.59,2.03,10.85,4.32,15.78,6.87.65.33,1.04.14,1.17-.57l1.93-10.28" vector-effect="non-scaling-stroke"/>
    <path class="cls-8" d="m672.93,280.07c2.45-16.41,2.63-32.59.55-48.53-.05-.38-.26-.57-.65-.57l-114.77-.11c-.44,0-.5-.15-.17-.45,6.69-6.25,14.48-7.96,23.35-5.12.36.11.62,0,.78-.34,6.22-13.21,20-17.64,33.41-13.26.31.11.55.02.71-.27,9.82-17.67,32.02-20.9,45.45-4.85.18.21.39.24.62.07l4.88-3.53c.22-.16.31-.44.23-.7-16.84-54.5-59.93-100.47-114.16-118.94-46.55-15.85-92.06-13.56-136.54,6.85-48.58,22.3-85.12,66.84-98.51,118.51-.06.21.07.43.28.49.07.02.15.02.22,0,5.46-1.58,10.8-1.29,16.01.87.35.15.6.04.75-.31,8.63-20.1,33.96-20.92,45.22-2.58.19.31.44.36.74.15,7.54-5.23,15.74-6.91,24.59-5.04" vector-effect="non-scaling-stroke"/>
    <path class="cls-7" d="m672.93,280.07c-7.13-3.89-13.75-6.7-19.84-8.43-20.65-5.88-41.92,3.53-54.58,20.13-.15.2-.44.23-.63.08-.08-.06-.13-.14-.16-.24-4.54-17.01-14.13-32.46-30.45-40.68-8.78-4.42-13.38-15.74-14.11-25.12-.03-.34.11-.6.41-.77,23.37-13.55,29.18-40.43,15.62-63.67-1.06-1.82-.45-1.97.4-3.52,4.39-8.05,3.6-17.88-1.79-25.32-8.13-11.23-21.17-12.28-33.52-6.79-.3.13-.64.14-.95.02-23.06-9.23-52.06-9.1-74.7,1.4-.3.14-.65.16-.97.08-23.94-6.36-44.6,17.36-29.93,39.22.17.26.15.6-.06.84-5.58,6.32-9.58,11.79-12.01,16.4-3.49,6.63-6.74,12.87-9.74,18.71" vector-effect="non-scaling-stroke"/>
    <path class="cls-3" d="m503.64,342.4c-16.5,6.27-36.42,5.05-53.57,1.73-.05-.01-.1.02-.1.08,0,.04.02.08.05.1,16.06,7.47,34.17,7.6,51.34,3.68" vector-effect="non-scaling-stroke"/>
    <path class="cls-7" d="m487.53,369.77l-18.77-4.95" vector-effect="non-scaling-stroke"/>
    <path class="cls-7" d="m463.63,362.95l-1.47-1.05" vector-effect="non-scaling-stroke"/>
    <path class="cls-7" d="m320.84,307.09l7.06-.46c.35-.02.6-.19.74-.52,12.07-28.43,33.65-44.19,64.75-47.28.34-.03.51-.22.51-.56.13-9.03,1.08-18.12,2.85-27.27" vector-effect="non-scaling-stroke"/>
    <path class="cls-5" d="m449.37,380.57l-4.88-.32c-.09,0-.16.06-.17.15,0,.09.06.16.15.17h0l4.11.27" vector-effect="non-scaling-stroke"/>
    <path class="cls-8" d="m448.58,380.84c9.88,1.56,17.86,2.06,23.95,1.51,13.51-1.23,26.87-3.58,40.85-1.31,7.51,1.21,17.47,4.36,24.28,6,13.15,3.17,26.58,3.92,40.27,2.25,14.6-1.78,27.37-7.96,42.44-7.67.39,0,.76-.15,1.03-.42l3.38-3.37c1.11-1.11.88-1.64-.69-1.59-9.97.31-19.52,1.71-28.66,4.21-16.55,4.53-31.2,6.09-48.31,3.43-11.41-1.77-22.96-6.29-33.63-7.65-22.07-2.81-42.13,5.22-64.12,4.34" vector-effect="non-scaling-stroke"/>
    <path class="cls-4" d="m448.58,380.84c.03-.15.29-.24.79-.27" vector-effect="non-scaling-stroke"/>
    <path class="cls-8" d="m442.11,407.44c10.19,1.63,23.59,3.78,32.73,2.47,13.71-1.97,27.17-3.1,40.39-3.39,1.59-.03,1.59-.1,0-.2-10.37-.65-20.92-1.35-31.55-.38-8.57.77-16.64,1.08-25.09.07-2.08-.25-6.56-1.14-13.43-2.66-18.06-3.99-36.83-5.18-56.32-3.55-.81.07-.88.33-.21.79l5.68,3.86c.31.21.65.3,1.02.27,16.18-1.4,29.35-.06,46.77,2.72" vector-effect="non-scaling-stroke"/>
    <path class="cls-8" d="m483.78,433.21c18.53,1.39,36.47-.15,53.84-4.62,1.08-.28,1.06-.46-.05-.53-18.94-1.26-37.62.3-56.04,4.69-.11.03-.16.15-.13.25.03.08.1.13.18.14.67-.01,1.41.01,2.2.07" vector-effect="non-scaling-stroke"/>
    <path class="cls-6" d="m458.64,276.6c11.69.25,31.77,6.15,36.92,18.08,2.17,5.03,4.74,9.81,7.71,14.36.27.41.82.53,1.23.26.22-.15.37-.39.4-.66l.3-2.83c.03-.21.23-.36.44-.33.1.01.2.07.26.15,1.79,2.51,3.74,7.11,7.54,3.61,1-.92,1.79-3.28,2.38-7.08.02-.19.19-.32.38-.29.12.02.22.09.27.2l2.08,4.65c.27.61.99.88,1.6.61.31-.14.54-.4.65-.71,2.25-6.53-.31-13.97-2.82-20.18-.21-.53-.07-.66.44-.39.47.25.87.58,1.21,1,.23.28.65.32.93.1.19-.16.28-.41.22-.65-3.04-14.03-13.42-22.74-24.75-30.58-10.72-7.41-21.36-14.94-31.93-22.57-6.87-4.97-13.64-6.57-21.82-5.38-.11.04-.23-.02-.26-.14-.04-.11.02-.23.13-.26h0c8.78-4.55,17.77-5.84,26.97-3.89,18.05,3.82,35.45,4.19,53.64.83,17.62-3.26,39.41-11.63,42.24-32.18,1.99-14.41-3.79-31.52-18.19-37.58-.21-.1-.3-.36-.2-.58.08-.17.27-.27.46-.23l1.79.4c.35.08.71-.14.79-.49.03-.14.02-.29-.04-.43-1.62-3.53-3.71-6.77-6.26-9.72-.21-.24-.2-.47.04-.69,7.61-6.91,16.75.92,12.3,9.82-.14.27-.03.6.25.74,0,0,0,0,0,0l2.34,1.16c.37.18.66.09.86-.27,9.39-16.81-9.7-27.42-22.54-17.35-.27.21-.57.25-.89.1-23.58-10.79-52.12-10.95-74.71,2.65-.29.17-.57.16-.84-.03-14.15-9.76-34.73,4.92-22.65,21.06.25.33.54.36.85.09l2.71-2.36c.29-.25.35-.54.18-.89-5.08-10.65,5.07-18.51,12.68-10.62.21.21.22.43.03.66l-7.96,9.97c-.09.12-.06.29.06.38.07.05.15.06.23.04,5.22-1.77,10.59-2.76,16.11-2.96.04,0,.07.04.06.08,0,.02-.01.04-.03.05-17.39,6.79-28.35,19.69-38.08,34.78-.05.1-.01.22.08.27.06.03.13.03.19,0l7.65-4.83c.09-.07.21-.05.28.04.07.09.05.21-.04.28-24.56,22.52-30.69,61.42-25.25,92.68,4.59,26.41,21.37,50.88,49.6,54.93,13.71,1.97,26.61-5.95,34.07-17.14,1.32-1.98,2.45-2.88,1.86-5.65-3.81-17.98-17.5-27.28-34.23-33.67-.79-.3-.76-.44.08-.42" vector-effect="non-scaling-stroke"/>
    <path class="cls-6" d="m534.16,237.46c2.82,12.76,7.78,27.43,23.68,27.66,1.85.03,3.75.69,5.69,1.99.39.26.35.42-.11.49-15.97,2.3-28.21,7.71-34.69,23.47-1.07,2.59-1.52,5.4-1.37,8.43.02.47.42.83.89.81.19,0,.38-.08.52-.21l7.75-6.68c.14-.14.36-.14.49,0,.12.12.14.3.05.44l-1.84,3.26c-.5.89-.19,2.02.7,2.52.25.14.53.22.81.24,2.46.14,6.42-2.59,10.15-5.35.47-.35.71-.23.71.36v.83c0,.55.44,1,.99,1.01.15,0,.3-.03.44-.1,3.07-1.42,6.1-2.8,9.09-4.14,7.49-3.37,24.61,5.75,31.07,9.84.47.3,1.09.16,1.39-.31.05-.08.09-.16.12-.25.87-2.9.29-4.47-.53-8.1-3.4-15.02-12.6-29.23-27.4-35.17-11.94-4.79-18.32-14.75-20.39-27.36-.06-.35-.26-.46-.59-.35-16.05,5.38-32.57,7.88-49.56,7.5-1.07-.02-1.16.26-.26.85,14.18,9.22,26.33,18.18,35.6,32.68.12.19.37.25.57.13.1-.06.16-.16.18-.28l5.54-34.2c.02-.09.1-.14.19-.12.06.01.1.06.12.11" vector-effect="non-scaling-stroke"/>
    <path class="cls-6" d="m340.85,307.87l9.04,1.49c.3.05.6-.1.73-.38,9.39-20.61,27.49-28.13,47.68-16.24.41.25.55.14.42-.32-2.01-6.97-3.45-14.05-4.33-21.24-.04-.31-.22-.48-.53-.5-1.54-.1-2.69-.1-3.46,0-23.36,3.41-39.99,15.58-49.9,36.51-.18.38-.06.6.35.67" vector-effect="non-scaling-stroke"/>
    <path class="cls-6" d="m357.15,310.96l13.62,4.02c.31.09.56,0,.77-.24,7.42-9.1,16.97-15.38,29.13-15.2.39,0,.52-.18.39-.55l-1.11-3.08c-.13-.35-.36-.59-.71-.71-17.22-5.89-32.61.54-42.16,15.57-.04.06-.02.14.04.18,0,0,.02,0,.03.01" vector-effect="non-scaling-stroke"/>
    <path class="cls-6" d="m526.04,321.11c18.7-5.7,35.23-5.09,53.95-3.62.33.03.59-.1.77-.38l2.82-4.44c.17-.25.12-.45-.13-.61-9.5-6.13-22.91-11.22-34.36-8.64-6.57,1.48-9.86,7.45-17.65,4.97-.31-.11-.62-.09-.92.04-10.31,4.45-11.68,15.62-25.75,12.21-.36-.09-.66.01-.91.29l-10.35,11.89c-.1.12-.09.3.03.41.07.06.17.08.26.06,11.27-2.98,21.46-8.9,32.24-12.18" vector-effect="non-scaling-stroke"/>
    <path class="cls-3" d="m398.8,328.18c6.3,3.99,12.65,8.63,19.06,13.92.25.21.54.28.86.23,6.45-1.07,12.32-1.37,18.93-1.58.6-.02.63-.17.1-.44-12-6.25-21.67-15-29.02-26.24-1.52-2.33-3-2.82-5.61-3.04" vector-effect="non-scaling-stroke"/>
    <path class="cls-6" d="m403.12,311.03c-8.31-1.64-15.19,2.41-20.7,8.19-.16.17-.16.43,0,.59.03.03.06.05.1.07l16.27,8.3" vector-effect="non-scaling-stroke"/>
    <path class="cls-5" d="m403.12,311.03c-.53,6.35-1.97,12.07-4.32,17.15" vector-effect="non-scaling-stroke"/>
    <path class="cls-6" d="m533.5,178.3c-1.48,1.82-8.62,13.27-2.17,13.36,3.78.06,20.37-3.97,16.63-10.85-3.06-5.62-9.88-8.17-14.46-2.51" vector-effect="non-scaling-stroke"/>
    <path class="cls-6" d="m462.95,180.77c-6.37,8.68,11.12,12.46,15.84,12.34,7.19-.18.35-9.87-1.29-11.96-4.27-5.43-10.19-6.31-14.55-.38" vector-effect="non-scaling-stroke"/>
    <path class="cls-6" d="m505.14,207.24l-.08,4.61c0,.37-.18.72-.46.95-4.43,3.65-11.53,2.44-16.03-.39-.13-.08-.3-.04-.38.09-.05.08-.05.17-.02.25,3.01,7.08,13.37,6.21,18.45,2.48.27-.2.56-.22.85-.05,4.35,2.41,16.76,3.37,17.34-4.05.04-.51-.14-.61-.55-.3-3.79,2.84-11.24,5.06-15.43,1.67-.28-.23-.44-.52-.49-.87l-.67-4.48c-.05-.36.1-.56.46-.61,3.65-.51,6.19-2.34,7.6-5.51,3.86-8.63-11.93-6.66-15.35-5.59-8.02,2.51-.36,10.23,4.2,11.11.33.06.57.35.56.69" vector-effect="non-scaling-stroke"/>
    <path class="cls-6" d="m539.67,182.63c.96-.07,1.67-1.03,1.6-2.16,0,0,0,0,0,0-.08-1.13-.92-1.99-1.88-1.93,0,0,0,0,0,0-.96.07-1.67,1.03-1.6,2.16h0c.08,1.13.92,1.99,1.88,1.93h0" vector-effect="non-scaling-stroke"/>
    <path class="cls-6" d="m470.66,184.48c.97.02,1.78-.94,1.81-2.16.03-1.21-.74-2.22-1.71-2.24-.97-.02-1.78.94-1.81,2.16-.03,1.21.74,2.22,1.71,2.24" vector-effect="non-scaling-stroke"/>
  </g>
  <path class="cls-9" d="m459.53,448.53c-78.42-13.83-139.93-76.97-153.65-155.12-18.76-106.91,57.53-205.71,162.97-219.94,103.33-13.95,202.35,62.84,214.01,165.98,14.38,127.22-97.5,231.27-223.33,209.08Zm-53.61-238.04c-4.25,9.75-7.31,19.28-9.17,28.59l-81.98-.05c-.34,0-.63.25-.67.59-3.08,25.75-.83,50.94,6.74,75.55l3.36,10.4c.1.32.32.49.67.5,27.1,1.16,57.67,10.3,79.1,27.81.22.18.19.3-.09.35-12.36,2.51-23.6,2.56-33.73.17-10.41-2.45-21.11-3.25-32.09-2.38-.38.03-.66.37-.63.74,0,.11.04.21.1.3l6,9.67c.21.34.52.5.92.49,7.47-.25,14.85.3,22.15,1.65,15.39,2.86,28.49,3.27,43.77-.65,6.76-1.73,10.95-2.7,12.57-2.9,13.63-1.67,26.77,1.96,39.22,8.66-6.03.09-13.47-.75-22.31-2.53-4.05-.81-8.62-1.05-13.72-.72-8.11.54-18.44,4-25.85,4.93-10.03,1.26-18.49,1.34-25.38.25-8.57-1.37-16.91-3.15-25.82-2.89-.37,0-.46.17-.26.49,2.27,3.66,1.77,3.28,6.02,3.68,3.65.34,9.15,1.18,16.5,2.53,15.76,2.89,31.41-.16,47.82-4.07,6.72-1.6,13.65-1.47,20.89-.62,7.85.93,15.71.93,23.58,0l5.13,1.87c-7.64,1.55-14.28,2.32-19.93,2.29-5.33-.03-14.82-1.09-22.68-.18-7.38.87-15.98,3.91-21.57,4.92-17.87,3.25-31.58,1.25-48.06-1.81-.2-.03-.39.1-.43.3-.02.11,0,.21.08.29,7.3,8.67,15.37,16.53,24.22,23.59.25.21.54.28.86.23,17.91-2.91,35.71-2.77,53.41.4,8.12,1.46,20.76,5.41,31.76,6.43,8.73.81,20-.99,27.67-.67,3.79.16,12.6,1.07,26.43,2.74,6.74.81,10.15,1.1,15.06,4.02.26.16.35.5.19.77-.07.11-.17.2-.3.24-2.17.68-4.45.43-6.4.48-8.19.18-16.58.07-24.53.98-10.68,1.21-22.42,3.35-31.99,3.96-23.29,1.47-47.77-4.6-68.47-3.54-.43.02-.45.14-.08.35,13.93,7.98,28.66,13.99,44.19,18.04,9.75,2.54,24.04-.13,33.82-2.26,9.86-2.16,15.28-3.32,16.27-3.47,18.95-2.92,37.98-2.85,57.07.2.57.09,1.23,0,1.97-.3,21.35-8.39,40.47-20.08,57.36-35.06.34-.31.28-.44-.17-.41-12.58.8-25.19,6.26-32.93,7.29-19.08,2.54-37.33,1.05-54.74-4.48-15.42-4.9-27.01-5.47-43.52-4.3-15.54,1.1-30.95-.04-46.22-3.41-3.04-.67-5.87-1.66-8.5-2.96-.5-.25-.7-.86-.44-1.36.13-.26.37-.45.65-.52,2.99-.71,6.08-1.01,9.28-.89,9.21.33,18.34-.2,27.4-1.61,6.96-1.08,14.68-3.45,22.04-5.34,11.77-.49,22.19-1.16,33.88,1.51,7.19,1.64,17.47,4.98,25.08,6.29,9.49,1.63,19.02,1.97,28.61,1,13.99-1.41,27.09-7.27,41.02-8.19,4.91-.33,9.83-.3,14.77.09.43.03.77-.12,1.04-.45l7.25-9.02c.29-.37.21-.59-.26-.67-10.19-1.81-19.53-2.11-28.02-.89-10.7,1.55-23.71,6.14-33.5,7.44-15.62,2.07-30.99.44-46.11-4.88-.33-.11-.38-.3-.16-.57,8.22-9.99,20.75-14.32,33.29-15.29.09,0,.17-.08.17-.17,0-.09-.08-.17-.17-.17-15.24-1.78-31.61,1.67-42.09,13.64-.22.25-.49.35-.82.28-9.57-1.97-19.19-2.44-28.88-1.43-5.1.54-8.46.15-13.01-1.18-.05-.02-.07-.08-.05-.13.01-.03.04-.05.07-.06,13.49-1.38,26.09-5.54,37.79-12.49.09-.05.12-.17.07-.26-.04-.08-.13-.11-.21-.09l-15.93,3.91c-1.7.17-3.27.03-4.71-.44-.34-.12-.53-.49-.41-.84.08-.24.3-.41.55-.44.61-.06,1.04-.35,1.3-.86.16-.31.41-.5.76-.57,1.81-.34,3.41-1.15,4.79-2.44,9.93-4.17,20.64-9.39,30.31-11.78,36.52-9.02,79.59,3.34,112.77,18.57.36.16.64.07.83-.27l4.98-8.81c.21-.37.12-.64-.27-.81-9.9-4.52-20.01-8.5-30.34-11.94-.22-.07-.33-.3-.26-.52.03-.09.09-.16.16-.21,11.99-7.98,24.73-9.16,38.24-3.54.34.14.58.04.73-.3l2.5-5.96c.14-.34.07-.62-.21-.85-16.01-12.85-37.83-10.13-47.73,8.71-.13.25-.34.35-.62.28l-21.73-5.35c-.35-.09-.44-.29-.25-.6,13.3-21.82,31.67-45.73,61.3-34.97,5.59,2.03,10.85,4.32,15.78,6.87.65.33,1.04.14,1.17-.57l1.93-10.28c2.45-16.41,2.63-32.59.55-48.53-.05-.38-.26-.57-.65-.57l-114.77-.11c-.44,0-.5-.15-.17-.45,6.69-6.25,14.48-7.96,23.35-5.12.36.11.62,0,.78-.34,6.22-13.21,20-17.64,33.41-13.26.31.11.55.02.71-.27,9.82-17.67,32.02-20.9,45.45-4.85.18.21.39.24.62.07l4.88-3.53c.22-.16.31-.44.23-.7-16.84-54.5-59.93-100.47-114.16-118.94-46.55-15.85-92.06-13.56-136.54,6.85-48.58,22.3-85.12,66.84-98.51,118.51-.06.21.07.43.28.49.07.02.15.02.22,0,5.46-1.58,10.8-1.29,16.01.87.35.15.6.04.75-.31,8.63-20.1,33.96-20.92,45.22-2.58.19.31.44.36.74.15,7.54-5.23,15.74-6.91,24.59-5.04Zm43.45,178.16l-4.88-.32c-.09,0-.16.06-.17.15,0,.09.06.16.15.17h0l4.11.27c9.88,1.56,17.86,2.06,23.95,1.51,13.51-1.23,26.87-3.58,40.85-1.31,7.51,1.21,17.47,4.36,24.28,6,13.15,3.17,26.58,3.92,40.27,2.25,14.6-1.78,27.37-7.96,42.44-7.67.39,0,.76-.15,1.03-.42l3.38-3.37c1.11-1.11.88-1.64-.69-1.59-9.97.31-19.52,1.71-28.66,4.21-16.55,4.53-31.2,6.09-48.31,3.43-11.41-1.77-22.96-6.29-33.63-7.65-22.07-2.81-42.13,5.22-64.12,4.34Zm-7.26,26.87c10.19,1.63,23.59,3.78,32.73,2.47,13.71-1.97,27.17-3.1,40.39-3.39,1.59-.03,1.59-.1,0-.2-10.37-.65-20.92-1.35-31.55-.38-8.57.77-16.64,1.08-25.09.07-2.08-.25-6.56-1.14-13.43-2.66-18.06-3.99-36.83-5.18-56.32-3.55-.81.07-.88.33-.21.79l5.68,3.86c.31.21.65.3,1.02.27,16.18-1.4,29.35-.06,46.77,2.72Zm41.67,25.77c18.53,1.39,36.47-.15,53.84-4.62,1.08-.28,1.06-.46-.05-.53-18.94-1.26-37.62.3-56.04,4.69-.11.03-.16.15-.13.25.03.08.1.13.18.14.67-.01,1.41.01,2.2.07Z"/>
  <path class="cls-12" d="m672.92,286.89c-7.13-3.89-13.75-6.7-19.84-8.43-20.65-5.88-41.92,3.53-54.58,20.13-.15.2-.44.23-.63.08-.08-.06-.13-.14-.16-.24-4.54-17.01-14.13-32.46-30.45-40.68-8.78-4.42-13.38-15.74-14.11-25.12-.03-.34.11-.6.41-.77,23.37-13.55,29.18-40.43,15.62-63.67-1.06-1.82-.45-1.97.4-3.52,4.39-8.05,3.6-17.88-1.79-25.32-8.13-11.23-21.17-12.28-33.52-6.79-.3.13-.64.14-.95.02-23.06-9.23-52.06-9.1-74.7,1.4-.3.14-.65.16-.97.08-23.94-6.36-44.6,17.36-29.93,39.22.17.26.15.6-.06.84-5.58,6.32-9.58,11.79-12.01,16.4-3.49,6.63-6.74,12.87-9.74,18.71-8.85-1.87-17.05-.19-24.59,5.04-.3.21-.55.16-.74-.15-11.26-18.34-36.59-17.52-45.22,2.58-.15.35-.4.46-.75.31-5.21-2.16-10.55-2.45-16.01-.87-.21.06-.43-.06-.5-.27-.02-.07-.02-.15,0-.22,13.39-51.67,49.93-96.21,98.51-118.51,44.48-20.41,89.99-22.7,136.54-6.85,54.23,18.47,97.32,64.44,114.16,118.94.08.26-.01.54-.23.7l-4.88,3.53c-.23.17-.44.14-.62-.07-13.43-16.05-35.63-12.82-45.45,4.85-.16.29-.4.38-.71.27-13.41-4.38-27.19.05-33.41,13.26-.16.34-.42.45-.78.34-8.87-2.84-16.66-1.13-23.35,5.12-.33.3-.27.45.17.45l114.77.11c.39,0,.6.19.65.57,2.08,15.94,1.9,32.12-.55,48.53Z"/>
  <path class="cls-11" d="m672.92,286.89l-1.93,10.28c-.13.71-.52.9-1.17.57-4.93-2.55-10.19-4.84-15.78-6.87-29.63-10.76-48,13.15-61.3,34.97-.19.31-.1.51.25.6l21.73,5.35c.28.07.49-.03.62-.28,9.9-18.84,31.72-21.56,47.73-8.71.28.23.35.51.21.85l-2.5,5.96c-.15.34-.39.44-.73.3-13.51-5.62-26.25-4.44-38.24,3.54-.19.13-.24.38-.11.57.05.08.13.13.21.16,10.33,3.44,20.44,7.42,30.34,11.94.39.17.48.44.27.81l-4.98,8.81c-.19.34-.47.43-.83.27-33.18-15.23-76.25-27.59-112.77-18.57-9.67,2.39-20.38,7.61-30.31,11.78-16.5,6.27-36.42,5.05-53.57,1.73-.05-.01-.1.02-.1.08,0,.04.02.08.05.1,16.06,7.47,34.17,7.6,51.34,3.68l15.93-3.91c.1-.03.21.03.23.14.02.08-.02.17-.09.21-11.7,6.95-24.3,11.11-37.79,12.49-.05.01-.09.06-.08.12,0,.03.03.06.06.07,4.55,1.33,7.91,1.72,13.01,1.18,9.69-1.01,19.31-.54,28.88,1.43.33.07.6-.03.82-.28,10.48-11.97,26.85-15.42,42.09-13.64.09,0,.17.08.17.17,0,.09-.08.17-.17.17-12.54.97-25.07,5.3-33.29,15.29-.22.27-.17.46.16.57,15.12,5.32,30.49,6.95,46.11,4.88,9.79-1.3,22.8-5.89,33.5-7.44,8.49-1.22,17.83-.92,28.02.89.47.08.55.3.26.67l-7.25,9.02c-.27.33-.61.48-1.04.45-4.94-.39-9.86-.42-14.77-.09-13.93.92-27.03,6.78-41.02,8.19-9.59.97-19.12.63-28.61-1-7.61-1.31-17.89-4.65-25.08-6.29-11.69-2.67-22.11-2-33.88-1.51l-18.77-4.95-5.13-1.87-1.47-1.05c-12.45-6.7-25.59-10.33-39.22-8.66-1.62.2-5.81,1.17-12.57,2.9-15.28,3.92-28.38,3.51-43.77.65-7.3-1.35-14.68-1.9-22.15-1.65-.4.01-.71-.15-.92-.49l-6-9.67c-.2-.32-.1-.74.23-.94.09-.06.2-.09.3-.1,10.98-.87,21.68-.07,32.09,2.38,10.13,2.39,21.37,2.34,33.73-.17.28-.05.31-.17.09-.35-21.43-17.51-52-26.65-79.1-27.81-.35-.01-.57-.18-.67-.5l-3.36-10.4,7.06-.46c.35-.02.6-.19.74-.52,12.07-28.43,33.65-44.19,64.75-47.28.34-.03.51-.22.51-.56.13-9.03,1.08-18.12,2.85-27.27,1.86-9.31,4.92-18.84,9.17-28.59,3-5.84,6.25-12.08,9.74-18.71,2.43-4.61,6.43-10.08,12.01-16.4.21-.24.23-.58.06-.84-14.67-21.86,5.99-45.58,29.93-39.22.32.08.67.06.97-.08,22.64-10.5,51.64-10.63,74.7-1.4.31.12.65.11.95-.02,12.35-5.49,25.39-4.44,33.52,6.79,5.39,7.44,6.18,17.27,1.79,25.32-.85,1.55-1.46,1.7-.4,3.52,13.56,23.24,7.75,50.12-15.62,63.67-.3.17-.44.43-.41.77.73,9.38,5.33,20.7,14.11,25.12,16.32,8.22,25.91,23.67,30.45,40.68.06.24.31.38.55.32.09-.03.18-.08.24-.16,12.66-16.6,33.93-26.01,54.58-20.13,6.09,1.73,12.71,4.54,19.84,8.43Zm-214.29-3.47c11.69.25,31.77,6.15,36.92,18.08,2.17,5.03,4.74,9.81,7.71,14.36.27.41.82.53,1.23.26.22-.15.37-.39.4-.66l.3-2.83c.03-.21.23-.36.44-.33.1.01.2.07.26.15,1.79,2.51,3.74,7.11,7.54,3.61,1-.92,1.79-3.28,2.38-7.08.02-.19.19-.32.38-.29.12.02.22.09.27.2l2.08,4.65c.27.61.99.88,1.6.61.31-.14.54-.4.65-.71,2.25-6.53-.31-13.97-2.82-20.18-.21-.53-.07-.66.44-.39.47.25.87.58,1.21,1,.23.28.65.32.93.1.19-.16.28-.41.22-.65-3.04-14.03-13.42-22.74-24.75-30.58-10.72-7.41-21.36-14.94-31.93-22.57-6.87-4.97-13.64-6.57-21.82-5.38-.11.04-.23-.02-.26-.14-.04-.11.02-.23.13-.26h0c8.78-4.55,17.77-5.84,26.97-3.89,18.05,3.82,35.45,4.19,53.64.83,17.62-3.26,39.41-11.63,42.24-32.18,1.99-14.41-3.79-31.52-18.19-37.58-.21-.1-.3-.36-.2-.58.08-.17.27-.27.46-.23l1.79.4c.35.08.71-.14.79-.49.03-.14.02-.29-.04-.43-1.62-3.53-3.71-6.77-6.26-9.72-.21-.24-.2-.47.04-.69,7.61-6.91,16.75.92,12.3,9.82-.14.27-.03.6.25.74,0,0,0,0,0,0l2.34,1.16c.37.18.66.09.86-.27,9.39-16.81-9.7-27.42-22.54-17.35-.27.21-.57.25-.89.1-23.58-10.79-52.12-10.95-74.71,2.65-.29.17-.57.16-.84-.03-14.15-9.76-34.73,4.92-22.65,21.06.25.33.54.36.85.09l2.71-2.36c.29-.25.35-.54.18-.89-5.08-10.65,5.07-18.51,12.68-10.62.21.21.22.43.03.66l-7.96,9.97c-.09.12-.06.29.06.38.07.05.15.06.23.04,5.22-1.77,10.59-2.76,16.11-2.96.04,0,.07.04.06.08,0,.02-.01.04-.03.05-17.39,6.79-28.35,19.69-38.08,34.78-.05.1-.01.22.08.27.06.03.13.03.19,0l7.65-4.83c.09-.07.21-.05.28.04.07.09.05.21-.04.28-24.56,22.52-30.69,61.42-25.25,92.68,4.59,26.41,21.37,50.88,49.6,54.93,13.71,1.97,26.61-5.95,34.07-17.14,1.32-1.98,2.45-2.88,1.86-5.65-3.81-17.98-17.5-27.28-34.23-33.67-.79-.3-.76-.44.08-.42Zm75.52-39.14c2.82,12.76,7.78,27.43,23.68,27.66,1.85.03,3.75.69,5.69,1.99.39.26.35.42-.11.49-15.97,2.3-28.21,7.71-34.69,23.47-1.07,2.59-1.52,5.4-1.37,8.43.02.47.42.83.89.81.19,0,.38-.08.52-.21l7.75-6.68c.14-.14.36-.14.49,0,.12.12.14.3.05.44l-1.84,3.26c-.5.89-.19,2.02.7,2.52.25.14.53.22.81.24,2.46.14,6.42-2.59,10.15-5.35.47-.35.71-.23.71.36v.83c0,.55.44,1,.99,1.01.15,0,.3-.03.44-.1,3.07-1.42,6.1-2.8,9.09-4.14,7.49-3.37,24.61,5.75,31.07,9.84.47.3,1.09.16,1.39-.31.05-.08.09-.16.12-.25.87-2.9.29-4.47-.53-8.1-3.4-15.02-12.6-29.23-27.4-35.17-11.94-4.79-18.32-14.75-20.39-27.36-.06-.35-.26-.46-.59-.35-16.05,5.38-32.57,7.88-49.56,7.5-1.07-.02-1.16.26-.26.85,14.18,9.22,26.33,18.18,35.6,32.68.12.19.37.25.57.13.1-.06.16-.16.18-.28l5.54-34.2c.02-.09.1-.14.19-.12.06.01.1.06.12.11Zm-193.31,70.41l9.04,1.49c.3.05.6-.1.73-.38,9.39-20.61,27.49-28.13,47.68-16.24.41.25.55.14.42-.32-2.01-6.97-3.45-14.05-4.33-21.24-.04-.31-.22-.48-.53-.5-1.54-.1-2.69-.1-3.46,0-23.36,3.41-39.99,15.58-49.9,36.51-.18.38-.06.6.35.67Zm16.3,3.09l13.62,4.02c.31.09.56,0,.77-.24,7.42-9.1,16.97-15.38,29.13-15.2.39,0,.52-.18.39-.55l-1.11-3.08c-.13-.35-.36-.59-.71-.71-17.22-5.89-32.61.54-42.16,15.57-.04.06-.02.14.04.18,0,0,.02,0,.03.01Zm168.89,10.15c18.7-5.7,35.23-5.09,53.95-3.62.33.03.59-.1.77-.38l2.82-4.44c.17-.25.12-.45-.13-.61-9.5-6.13-22.91-11.22-34.36-8.64-6.57,1.48-9.86,7.45-17.65,4.97-.31-.11-.62-.09-.92.04-10.31,4.45-11.68,15.62-25.75,12.21-.36-.09-.66.01-.91.29l-10.35,11.89c-.1.12-.09.3.03.41.07.06.17.08.26.06,11.27-2.98,21.46-8.9,32.24-12.18Zm-127.24,7.07c6.3,3.99,12.65,8.63,19.06,13.92.25.21.54.28.86.23,6.45-1.07,12.32-1.37,18.93-1.58.6-.02.63-.17.1-.44-12-6.25-21.67-15-29.02-26.24-1.52-2.33-3-2.82-5.61-3.04-8.31-1.64-15.19,2.41-20.7,8.19-.16.17-.16.43,0,.59.03.03.06.05.1.07l16.27,8.3Z"/>
  <path class="cls-10" d="m458.55,283.84c16.73,6.39,30.42,15.69,34.23,33.67.59,2.77-.54,3.67-1.86,5.65-7.46,11.19-20.36,19.11-34.07,17.14-28.23-4.05-45.01-28.52-49.6-54.93-5.44-31.26.69-70.16,25.25-92.68.09-.07.11-.19.04-.28-.07-.09-.19-.11-.28-.04l-7.65,4.83c-.1.05-.22.01-.27-.08-.03-.06-.03-.13,0-.19,9.73-15.09,20.69-27.99,38.08-34.78.03-.02.04-.06.02-.1-.01-.02-.03-.03-.05-.03-5.52.2-10.89,1.19-16.11,2.96-.14.04-.29-.04-.33-.19-.02-.08,0-.17.04-.23l7.96-9.97c.19-.23.18-.45-.03-.66-7.61-7.89-17.76-.03-12.68,10.62.17.35.11.64-.18.89l-2.71,2.36c-.31.27-.6.24-.85-.09-12.08-16.14,8.5-30.82,22.65-21.06.27.19.55.2.84.03,22.59-13.6,51.13-13.44,74.71-2.65.32.15.62.11.89-.1,12.84-10.07,31.93.54,22.54,17.35-.2.36-.49.45-.86.27l-2.34-1.16c-.27-.13-.39-.46-.25-.74,0,0,0,0,0,0,4.45-8.9-4.69-16.73-12.3-9.82-.24.22-.25.45-.04.69,2.55,2.95,4.64,6.19,6.26,9.72.15.33,0,.72-.32.88-.13.06-.28.08-.43.04l-1.79-.4c-.23-.04-.46.12-.49.35-.03.19.06.37.23.46,14.4,6.06,20.18,23.17,18.19,37.58-2.83,20.55-24.62,28.92-42.24,32.18-18.19,3.36-35.59,2.99-53.64-.83-9.2-1.95-18.19-.66-26.97,3.89-.11.04-.17.15-.13.26.04.11.15.17.26.14h0c8.18-1.19,14.95.41,21.82,5.38,10.57,7.63,21.21,15.16,31.93,22.57,11.33,7.84,21.71,16.55,24.75,30.58.08.35-.14.7-.49.78-.24.05-.5-.03-.66-.23-.34-.42-.74-.75-1.21-1-.51-.27-.65-.14-.44.39,2.51,6.21,5.07,13.65,2.82,20.18-.22.63-.9.97-1.54.75-.32-.11-.58-.35-.71-.65l-2.08-4.65c-.07-.17-.27-.25-.45-.18-.11.05-.19.15-.2.27-.59,3.8-1.38,6.16-2.38,7.08-3.8,3.5-5.75-1.1-7.54-3.61-.13-.17-.37-.21-.55-.08-.08.06-.14.16-.15.26l-.3,2.83c-.05.49-.48.85-.97.8-.27-.03-.51-.17-.66-.4-2.97-4.55-5.54-9.33-7.71-14.36-5.15-11.93-25.23-17.83-36.92-18.08-.84-.02-.87.12-.08.42Zm74.94-98.72c-1.48,1.82-8.62,13.27-2.17,13.36,3.78.06,20.37-3.97,16.63-10.85-3.06-5.62-9.88-8.17-14.46-2.51Zm-70.55,2.47c-6.37,8.68,11.12,12.46,15.84,12.34,7.19-.18.35-9.87-1.29-11.96-4.27-5.43-10.19-6.31-14.55-.38Zm42.19,26.47l-.08,4.61c0,.37-.18.72-.46.95-4.43,3.65-11.53,2.44-16.03-.39-.13-.08-.3-.04-.38.09-.05.08-.05.17-.02.25,3.01,7.08,13.37,6.21,18.45,2.48.27-.2.56-.22.85-.05,4.35,2.41,16.76,3.37,17.34-4.05.04-.51-.14-.61-.55-.3-3.79,2.84-11.24,5.06-15.43,1.67-.28-.23-.44-.52-.49-.87l-.67-4.48c-.05-.36.1-.56.46-.61,3.65-.51,6.19-2.34,7.6-5.51,3.86-8.63-11.93-6.66-15.35-5.59-8.02,2.51-.36,10.23,4.2,11.11.33.06.57.35.56.69Z"/>
  <path class="cls-11" d="m533.49,185.12c4.58-5.66,11.4-3.11,14.46,2.51,3.74,6.88-12.85,10.91-16.63,10.85-6.45-.09.69-11.54,2.17-13.36Zm6.17,4.34c.96-.07,1.67-1.03,1.6-2.16,0,0,0,0,0,0-.08-1.13-.92-1.99-1.88-1.93,0,0,0,0,0,0-.96.07-1.67,1.03-1.6,2.16h0c.08,1.13.92,1.99,1.88,1.93h0Z"/>
  <path class="cls-11" d="m462.94,187.59c4.36-5.93,10.28-5.05,14.55.38,1.64,2.09,8.48,11.78,1.29,11.96-4.72.12-22.21-3.66-15.84-12.34Zm7.71,3.71c.97.02,1.78-.94,1.81-2.16.03-1.21-.74-2.22-1.71-2.24-.97-.02-1.78.94-1.81,2.16-.03,1.21.74,2.22,1.71,2.24Z"/>
  <ellipse class="cls-10" cx="539.52" cy="187.41" rx="1.74" ry="2.05" transform="translate(-11.5 37.13) rotate(-3.9)"/>
  <ellipse class="cls-10" cx="470.7" cy="189.1" rx="2.2" ry="1.76" transform="translate(270.97 655.38) rotate(-88.7)"/>
  <path class="cls-11" d="m505.13,214.06c0-.34-.23-.63-.56-.69-4.56-.88-12.22-8.6-4.2-11.11,3.42-1.07,19.21-3.04,15.35,5.59-1.41,3.17-3.95,5-7.6,5.51-.36.05-.51.25-.46.61l.67,4.48c.05.35.21.64.49.87,4.19,3.39,11.64,1.17,15.43-1.67.41-.31.59-.21.55.3-.58,7.42-12.99,6.46-17.34,4.05-.29-.17-.58-.15-.85.05-5.08,3.73-15.44,4.6-18.45-2.48-.06-.14,0-.3.14-.36.08-.04.18-.03.26.02,4.5,2.83,11.6,4.04,16.03.39.28-.23.45-.58.46-.95l.08-4.61Z"/>
  <path class="cls-10" d="m534.15,244.28c-.02-.08-.11-.13-.2-.11-.06.02-.1.06-.11.12l-5.54,34.2c-.04.22-.25.37-.47.33-.11-.02-.21-.09-.28-.18-9.27-14.5-21.42-23.46-35.6-32.68-.9-.59-.81-.87.26-.85,16.99.38,33.51-2.12,49.56-7.5.33-.11.53,0,.59.35,2.07,12.61,8.45,22.57,20.39,27.36,14.8,5.94,24,20.15,27.4,35.17.82,3.63,1.4,5.2.53,8.1-.16.53-.72.84-1.26.68-.09-.03-.17-.07-.25-.12-6.46-4.09-23.58-13.21-31.07-9.84-2.99,1.34-6.02,2.72-9.09,4.14-.5.24-1.1.03-1.33-.47-.07-.14-.1-.29-.1-.44v-.83c0-.59-.24-.71-.71-.36-3.73,2.76-7.69,5.49-10.15,5.35-1.02-.05-1.8-.93-1.75-1.95.02-.29.1-.56.24-.81l1.84-3.26c.11-.16.06-.38-.1-.49-.14-.09-.32-.07-.44.05l-7.75,6.68c-.35.31-.89.27-1.2-.08-.13-.15-.2-.33-.21-.52-.15-3.03.3-5.84,1.37-8.43,6.48-15.76,18.72-21.17,34.69-23.47.46-.07.5-.23.11-.49-1.94-1.3-3.84-1.96-5.69-1.99-15.9-.23-20.86-14.9-23.68-27.66Z"/>
  <path class="cls-12" d="m396.74,237.82c-1.77,9.15-2.72,18.24-2.85,27.27,0,.34-.17.53-.51.56-31.1,3.09-52.68,18.85-64.75,47.28-.14.33-.39.5-.74.52l-7.06.46c-7.57-24.61-9.82-49.8-6.74-75.55.04-.34.33-.59.67-.59l81.98.05Z"/>
  <path class="cls-10" d="m340.84,314.69c-.41-.07-.53-.29-.35-.67,9.91-20.93,26.54-33.1,49.9-36.51.77-.11,1.92-.11,3.46,0,.31.02.49.19.53.5.88,7.19,2.32,14.27,4.33,21.24.13.46-.01.57-.42.32-20.19-11.89-38.29-4.37-47.68,16.24-.13.28-.43.43-.73.38l-9.04-1.49Z"/>
  <path class="cls-10" d="m357.14,317.78c-.07-.02-.1-.1-.08-.16,0,0,0-.02.01-.03,9.55-15.03,24.94-21.46,42.16-15.57.35.12.58.36.71.71l1.11,3.08c.13.37,0,.56-.39.55-12.16-.18-21.71,6.1-29.13,15.2-.21.25-.46.33-.77.24l-13.62-4.02Z"/>
  <path class="cls-10" d="m579.98,324.31c-18.72-1.47-35.25-2.08-53.95,3.62-10.78,3.28-20.97,9.2-32.24,12.18-.16.04-.31-.06-.35-.21-.02-.09,0-.19.06-.26l10.35-11.89c.25-.28.55-.38.91-.29,14.07,3.41,15.44-7.76,25.75-12.21.3-.13.61-.15.92-.04,7.79,2.48,11.08-3.49,17.65-4.97,11.45-2.58,24.86,2.51,34.36,8.64.25.16.3.36.13.61l-2.82,4.44c-.18.28-.44.41-.77.38Z"/>
  <path class="cls-10" d="m403.11,317.85c-.53,6.35-1.97,12.07-4.32,17.15l-16.27-8.3c-.2-.1-.29-.35-.18-.56.02-.04.04-.07.07-.1,5.51-5.78,12.39-9.83,20.7-8.19Z"/>
  <path class="cls-2" d="m403.11,317.85c2.61.22,4.09.71,5.61,3.04,7.35,11.24,17.02,19.99,29.02,26.24.53.27.5.42-.1.44-6.61.21-12.48.51-18.93,1.58-.32.05-.61-.02-.86-.23-6.41-5.29-12.76-9.93-19.06-13.92,2.35-5.08,3.79-10.8,4.32-17.15Z"/>
  <path class="cls-2" d="m503.63,349.22c-1.38,1.29-2.98,2.1-4.79,2.44-.35.07-.6.26-.76.57-.26.51-.69.8-1.3.86-.36.04-.62.37-.58.73.03.25.2.47.44.55,1.44.47,3.01.61,4.71.44-17.17,3.92-35.28,3.79-51.34-3.68-.05-.03-.06-.09-.04-.13.02-.04.05-.05.09-.05,17.15,3.32,37.07,4.54,53.57-1.73Z"/>
  <path class="cls-12" d="m462.15,368.72l1.47,1.05c-7.87.93-15.73.93-23.58,0-7.24-.85-14.17-.98-20.89.62-16.41,3.91-32.06,6.96-47.82,4.07-7.35-1.35-12.85-2.19-16.5-2.53-4.25-.4-3.75-.02-6.02-3.68-.2-.32-.11-.48.26-.49,8.91-.26,17.25,1.52,25.82,2.89,6.89,1.09,15.35,1.01,25.38-.25,7.41-.93,17.74-4.39,25.85-4.93,5.1-.33,9.67-.09,13.72.72,8.84,1.78,16.28,2.62,22.31,2.53Z"/>
  <path class="cls-12" d="m468.75,371.64l18.77,4.95c-7.36,1.89-15.08,4.26-22.04,5.34-9.06,1.41-18.19,1.94-27.4,1.61-3.2-.12-6.29.18-9.28.89-.54.14-.87.69-.73,1.23.07.28.26.52.52.65,2.63,1.3,5.46,2.29,8.5,2.96,15.27,3.37,30.68,4.51,46.22,3.41,16.51-1.17,28.1-.6,43.52,4.3,17.41,5.53,35.66,7.02,54.74,4.48,7.74-1.03,20.35-6.49,32.93-7.29.45-.03.51.1.17.41-16.89,14.98-36.01,26.67-57.36,35.06-.74.29-1.4.39-1.97.3-19.09-3.05-38.12-3.12-57.07-.2-.99.15-6.41,1.31-16.27,3.47-9.78,2.13-24.07,4.8-33.82,2.26-15.53-4.05-30.26-10.06-44.19-18.04-.37-.21-.35-.33.08-.35,20.7-1.06,45.18,5.01,68.47,3.54,9.57-.61,21.31-2.75,31.99-3.96,7.95-.91,16.34-.8,24.53-.98,1.95-.05,4.23.2,6.4-.48.29-.1.45-.42.35-.71-.04-.13-.13-.23-.24-.3-4.91-2.92-8.32-3.21-15.06-4.02-13.83-1.67-22.64-2.58-26.43-2.74-7.67-.32-18.94,1.48-27.67.67-11-1.02-23.64-4.97-31.76-6.43-17.7-3.17-35.5-3.31-53.41-.4-.32.05-.61-.02-.86-.23-8.85-7.06-16.92-14.92-24.22-23.59-.13-.15-.11-.38.05-.51.08-.07.19-.1.3-.08,16.48,3.06,30.19,5.06,48.06,1.81,5.59-1.01,14.19-4.05,21.57-4.92,7.86-.91,17.35.15,22.68.18,5.65.03,12.29-.74,19.93-2.29Z"/>
  <path class="cls-12" d="m448.57,387.66c.03-.15.29-.24.79-.27,21.99.88,42.05-7.15,64.12-4.34,10.67,1.36,22.22,5.88,33.63,7.65,17.11,2.66,31.76,1.1,48.31-3.43,9.14-2.5,18.69-3.9,28.66-4.21,1.57-.05,1.8.48.69,1.59l-3.38,3.37c-.27.27-.64.43-1.03.42-15.07-.29-27.84,5.89-42.44,7.67-13.69,1.67-27.12.92-40.27-2.25-6.81-1.64-16.77-4.79-24.28-6-13.98-2.27-27.34.08-40.85,1.31-6.09.55-14.07.05-23.95-1.51Z"/>
  <path class="cls-2" d="m449.36,387.39c-.5.03-.76.12-.79.27l-4.11-.27c-.09,0-.16-.08-.15-.17,0-.09.08-.16.17-.15l4.88.32Z"/>
  <path class="cls-12" d="m474.83,416.73c-9.14,1.31-22.54-.84-32.73-2.47-17.42-2.78-30.59-4.12-46.77-2.72-.37.03-.71-.06-1.02-.27l-5.68-3.86c-.67-.46-.6-.72.21-.79,19.49-1.63,38.26-.44,56.32,3.55,6.87,1.52,11.35,2.41,13.43,2.66,8.45,1.01,16.52.7,25.09-.07,10.63-.97,21.18-.27,31.55.38,1.58.1,1.58.17,0,.2-13.22.29-26.68,1.42-40.39,3.39Z"/>
  <path class="cls-12" d="m483.77,440.03c-.79-.06-1.53-.08-2.2-.07-.11,0-.19-.1-.19-.21,0-.08.06-.15.14-.18,18.42-4.39,37.1-5.95,56.04-4.69,1.11.07,1.13.25.05.53-17.37,4.47-35.31,6.01-53.84,4.62Z"/>
  <text class="cls-1" transform="translate(561.29 58.54) rotate(19.87) scale(1.12 1)"><tspan x="0" y="0">O</tspan></text>
  <text class="cls-1" transform="translate(584.24 67.09) rotate(24.75) scale(1.12 1)"><tspan x="0" y="0">t</tspan></text>
  <text class="cls-1" transform="translate(594.35 71.7) rotate(27.68) scale(1.12 1)"><tspan x="0" y="0">t</tspan></text>
  <text class="cls-1" transform="translate(605.52 77.53) rotate(31.15) scale(1.12 1)"><tspan x="0" y="0">e</tspan></text>
  <text class="cls-1" transform="translate(616.53 84.13) rotate(34.6) scale(1.12 1)"><tspan x="0" y="0">r</tspan></text>
  <text class="cls-1" transform="translate(628.35 92.39) rotate(37.35) scale(1.12 1)"><tspan x="0" y="0">’</tspan></text>
  <text class="cls-1" transform="translate(633.58 96.31) rotate(39.79) scale(1.12 1)"><tspan x="0" y="0">s</tspan></text>
  <text class="cls-1" transform="translate(642.84 104.04) rotate(42.73) scale(1.12 1)"><tspan x="0" y="0"> </tspan></text>
  <text class="cls-1" transform="translate(650.51 110.83) rotate(46.91) scale(1.12 1)"><tspan x="0" y="0">P</tspan></text>
  <text class="cls-1" transform="translate(663.59 124.82) rotate(51.16) scale(1.12 1)"><tspan x="0" y="0">a</tspan></text>
  <text class="cls-1" transform="translate(672.12 134.79) rotate(56.21) scale(1.12 1)"><tspan x="0" y="0">w</tspan></text>
  <text class="cls-1" transform="translate(687.13 157.87) rotate(61.21) scale(1.12 1)"><tspan x="0" y="0"> </tspan></text>
  <text class="cls-1" transform="translate(692.2 166.8) rotate(65.01) scale(1.12 1)"><tspan x="0" y="0">S</tspan></text>
  <text class="cls-1" transform="translate(699.69 183.06) rotate(69.05) scale(1.12 1)"><tspan x="0" y="0">t</tspan></text>
  <text class="cls-1" transform="translate(703.96 193.89) rotate(72.81) scale(1.12 1)"><tspan x="0" y="0">u</tspan></text>
  <text class="cls-1" transform="translate(708.92 209.78) rotate(77.26) scale(1.12 1)"><tspan x="0" y="0">d</tspan></text>
  <text class="cls-1" transform="translate(712.36 225.38) rotate(80.33) scale(1.12 1)"><tspan x="0" y="0">i</tspan></text>
  <text class="cls-1" transform="translate(713.75 232.83) rotate(83.34) scale(1.12 1)"><tspan x="0" y="0">o</tspan></text>
  <text/>
</svg>